<svg width="50" height="14" viewBox="0 0 50 14" fill="none" xmlns="http://www.w3.org/2000/svg">
<g id="logos:netflix" clip-path="url(#clip0_141_2521)">
<path id="Vector" d="M33.2673 0V9.78545C34.4743 9.8415 35.6781 9.90954 36.8786 9.98955V12.0643C34.9746 11.9373 33.0687 11.841 31.1616 11.7753V0H33.2673ZM50 0.00117188L47.2581 6.35801L49.9993 13.432L49.9963 13.4333C49.197 13.3196 48.397 13.2114 47.5963 13.1088L46.0569 9.13848L44.5029 12.7402C43.7657 12.6588 43.028 12.582 42.2898 12.5098L44.9628 6.31543L42.5148 0.00126953H44.7927L46.1633 3.53486L47.6873 0.00117188H50ZM23.9349 11.6725V0.00107422H29.8128V2.09443H26.0405V4.80732H28.8947V6.88203H26.0405V11.6721L23.9349 11.6725ZM16.0723 2.09453V0.000976562H22.585V2.09443H20.3813V11.7292C19.6785 11.7478 18.9765 11.7694 18.2759 11.7959V2.09453H16.0723ZM8.87383 12.399V0.00136719H14.7225V2.09463H10.9792V4.93018C11.8392 4.91914 13.0619 4.90674 13.8227 4.9085V6.9834C12.8704 6.97168 11.7955 6.99648 10.9792 7.00459V10.1456C12.226 10.0473 13.4739 9.96206 14.7225 9.88975V11.9646C12.7707 12.0773 10.8208 12.2221 8.87383 12.3992M4.74326 7.60293L4.74316 0.000976562H6.84883V12.5947C6.0791 12.6739 5.31077 12.758 4.54385 12.8471L2.10547 5.84219V13.1471C1.40234 13.2386 0.700521 13.3342 0 13.4338V0.00117188H2.00107L4.74326 7.60293ZM38.6157 12.1894V0.00117188H40.7215V12.3633C40.0204 12.3008 39.3187 12.2431 38.6157 12.1894Z" fill="#DB202C"/>
</g>
<defs>
<clipPath id="clip0_141_2521">
<rect width="50" height="13.4766" fill="white"/>
</clipPath>
</defs>
</svg>
