<svg width="50" height="13" viewBox="0 0 50 13" fill="none" xmlns="http://www.w3.org/2000/svg">
<g id="logos:youtube" clip-path="url(#clip0_141_2789)">
<path id="Vector" d="M15.6142 2.58691C15.5227 2.24845 15.344 1.93988 15.0961 1.69195C14.8481 1.44402 14.5395 1.26538 14.2011 1.17383C12.9619 0.835938 7.97519 0.835938 7.97519 0.835938C7.97519 0.835938 2.98827 0.846191 1.74931 1.18408C1.41085 1.27565 1.10229 1.4543 0.854363 1.70222C0.606434 1.95015 0.427789 2.25871 0.33622 2.59717C-0.038585 4.79883 -0.183995 8.15342 0.346474 10.2669C0.438042 10.6053 0.616688 10.9139 0.864616 11.1618C1.11255 11.4098 1.4211 11.5884 1.75956 11.68C2.99862 12.0179 7.98544 12.0179 7.98544 12.0179C7.98544 12.0179 12.9723 12.0179 14.2113 11.68C14.5498 11.5884 14.8583 11.4098 15.1063 11.1618C15.3542 10.9139 15.5328 10.6053 15.6244 10.2669C16.0196 8.06221 16.1415 4.70967 15.6142 2.58701" fill="#FF0000"/>
<path id="Vector_2" d="M6.38672 8.82158L10.5236 6.42549L6.38672 4.0293V8.82158Z" fill="white"/>
<path id="Vector_3" d="M47.9746 4.08115C48.5173 4.08115 48.9269 4.1835 49.2136 4.37803C49.5003 4.57262 49.7051 4.87985 49.828 5.29971C49.9509 5.71953 50.002 6.29287 50.002 7.03018V8.22832H47.3704V8.59688L47.4114 9.61065C47.4421 9.83594 47.4934 9.9998 47.5752 10.1021C47.6572 10.2046 47.7902 10.2558 47.9644 10.2558C48.1999 10.2558 48.3638 10.1637 48.4456 9.97939C48.5378 9.79502 48.5787 9.48779 48.589 9.06797L49.9509 9.1499C49.9611 9.21133 49.9611 9.29326 49.9611 9.39561C49.9611 10.0407 49.787 10.5221 49.4286 10.8395C49.0702 11.1568 48.5787 11.3207 47.9336 11.3207C47.1554 11.3207 46.6127 11.075 46.3055 10.5938C45.9983 10.1124 45.8345 9.35459 45.8345 8.34092V7.10186C45.8692 5.36113 46.1754 4.08623 47.9746 4.08115ZM29.041 4.21426V9.34443C29.041 9.65166 29.0717 9.87695 29.1434 10.0101C29.2888 10.2947 29.6656 10.222 29.8704 10.0817C29.9886 10.0018 30.0839 9.89239 30.1469 9.76436V4.21416H31.7136V11.208H30.4848L30.3517 10.3479H30.321C29.9831 10.993 29.4812 11.3206 28.8157 11.3206C27.7913 11.3181 27.5406 10.58 27.481 9.83037L27.4771 9.77754C27.4697 9.664 27.4653 9.55029 27.4641 9.43652V4.21426H29.041ZM37.1203 4.21426V9.34443C37.1203 9.65166 37.151 9.87695 37.2227 10.0101C37.3682 10.2947 37.7449 10.222 37.9497 10.0817C38.0679 10.0018 38.1632 9.89239 38.2262 9.76436V4.21416H39.7929V11.208H38.5641L38.431 10.3479H38.4003C38.0624 10.993 37.5605 11.3206 36.895 11.3206C35.8706 11.3181 35.6199 10.58 35.5603 9.83037L35.5563 9.77754C35.549 9.664 35.5446 9.55029 35.5434 9.43652V4.21426H37.1203ZM24.4944 4.08115C25.0064 4.08115 25.4263 4.1835 25.7335 4.39854C26.0406 4.61357 26.2762 4.94131 26.4195 5.3918C26.5629 5.84238 26.6346 6.44648 26.6346 7.19404V8.20772C26.6346 8.95527 26.5629 9.54922 26.4195 9.99971C26.2762 10.4504 26.0509 10.778 25.7335 10.9931C25.4161 11.1979 24.9859 11.3104 24.4535 11.3104C23.9005 11.3207 23.4704 11.2081 23.153 11.0033C22.8356 10.7883 22.6103 10.4605 22.4772 10.0101C22.344 9.55947 22.2826 8.96553 22.2826 8.21807V7.2042C22.2826 6.45664 22.3543 5.84229 22.5079 5.3917C22.6615 4.93096 22.897 4.60322 23.2247 4.39854C23.5523 4.19365 23.9722 4.08105 24.4944 4.08105M42.2505 1.27539V4.96172H42.2607C42.4041 4.69551 42.5884 4.48047 42.8444 4.3166C43.0836 4.15591 43.3652 4.07035 43.6533 4.0709C44.0322 4.0709 44.3189 4.17324 44.534 4.36777C44.749 4.57266 44.9026 4.89004 44.9947 5.33037C45.0841 5.75693 45.1349 6.34688 45.138 7.09082L45.1381 7.16338V8.26924C45.1381 9.30342 45.005 10.0715 44.7592 10.563C44.5033 11.0545 44.1142 11.3003 43.5816 11.3003C43.2848 11.3003 43.0185 11.2286 42.7728 11.0955C42.5555 10.9688 42.3753 10.7872 42.2503 10.5689L42.23 10.5322H42.1993L42.0355 11.1979H40.735V1.27549L42.2505 1.27539ZM35.9836 1.63379V2.90342H34.4271V11.208H32.8912V2.90352H31.3245V1.63389L35.9836 1.63379ZM19.0979 1.63379L19.0989 1.6377C19.1139 1.7042 19.3209 2.62461 19.5486 3.69697L19.5666 3.78193L19.5938 3.91035L19.6119 3.99658L19.621 4.03984L19.6392 4.12656L19.6482 4.17002L19.6663 4.25703L19.6927 4.38428C19.8465 5.12686 19.9933 5.87158 20.0811 6.40557H20.1221C20.2062 5.92656 20.3283 5.31357 20.4586 4.6877L20.4928 4.52422C20.5099 4.44232 20.5271 4.36055 20.5445 4.27891L20.5713 4.15225C20.7482 3.32284 20.9304 2.49456 21.1179 1.66748L21.1208 1.6543L21.1255 1.63379H22.6922L20.8797 8.09522V11.1979H19.3335V8.10537H19.3232L17.5312 1.63369L19.0979 1.63379ZM24.4637 5.1665C24.2486 5.1665 24.1053 5.2792 24.0132 5.51475C23.9211 5.75029 23.8801 6.10859 23.8801 6.61045V8.7915C23.8801 9.30352 23.921 9.68232 24.0029 9.90771C24.0849 10.133 24.2385 10.2456 24.4637 10.2456C24.6787 10.2456 24.8323 10.133 24.9245 9.90771C25.0167 9.68232 25.0576 9.30352 25.0576 8.7915V6.61035C25.0576 6.10859 25.0166 5.73994 24.9245 5.51465C24.8323 5.2792 24.6787 5.1665 24.4637 5.1665ZM42.527 5.37139C42.4021 5.48662 42.3134 5.62871 42.2605 5.80635L42.2505 5.84238V9.81543C42.3774 10.0305 42.5577 10.1738 42.8751 10.1841C43.0389 10.1841 43.172 10.1227 43.2745 9.99981C43.3769 9.87695 43.4485 9.67214 43.4895 9.38535C43.5288 9.11016 43.5493 8.73112 43.5509 8.24824V7.27598C43.5509 6.72305 43.5304 6.30322 43.4997 6.00625C43.4587 5.70928 43.4076 5.49424 43.3154 5.37139C43.1372 5.11533 42.7522 5.11846 42.527 5.37139ZM47.9439 5.13584C47.7698 5.14606 47.6469 5.19727 47.5752 5.28945C47.4934 5.3918 47.4421 5.54541 47.4114 5.7707C47.3813 5.99141 47.3709 6.76289 47.3704 6.79375V7.29648H48.5173V6.85313V6.86162C48.5166 7.0166 48.5134 6.77168 48.5063 6.471L48.5054 6.43057C48.4989 6.16631 48.4895 5.87168 48.4764 5.7707C48.4456 5.53516 48.3943 5.37129 48.3125 5.2792C48.2306 5.18701 48.1077 5.13584 47.9438 5.13584" fill="#444444"/>
</g>
<defs>
<clipPath id="clip0_141_2789">
<rect width="50" height="11.3281" fill="white" transform="translate(0 0.835938)"/>
</clipPath>
</defs>
</svg>
