<svg width="67" height="13" viewBox="0 0 67 13" fill="none" xmlns="http://www.w3.org/2000/svg">
<path d="M0.342234 6.568C0.342234 3.72 2.03023 0.848 5.66223 0.848C6.84623 0.848 7.35823 1.176 7.85423 1.176C8.23024 1.176 8.47824 0.999999 8.83823 0.999999C9.55023 0.999999 9.56623 1.688 9.75023 2.64C9.96624 3.816 10.0862 4.088 10.0862 4.336C10.0862 4.72 9.85423 4.896 9.60623 4.896C9.12624 4.896 8.88624 4.352 8.49424 3.792C7.76623 2.784 6.88623 2.264 6.05423 2.264C4.44623 2.264 3.70223 3.736 3.70223 5.408C3.70223 7.752 4.95023 9.712 7.00623 9.712C8.34223 9.712 9.10223 8.88 9.48623 8.24C9.65423 7.992 9.79023 7.8 9.95823 7.8C10.2222 7.8 10.3262 8.152 10.3262 8.448C10.3262 9.048 10.1502 9.672 9.80624 10.224C9.08624 11.368 7.63823 12.272 5.65423 12.272C2.19823 12.272 0.342234 9.544 0.342234 6.568ZM14.4091 1.072C14.8651 1.072 15.0331 1.304 15.0331 1.616C15.0331 2.296 14.2571 2.224 14.1211 3.664C14.0731 4.056 14.0731 4.856 14.0731 6.248C14.0731 8.096 14.1131 9.376 14.1931 9.896C14.3451 10.928 15.1051 10.936 15.1051 11.544C15.1051 11.816 14.8651 12.048 14.4091 12.048C13.8491 12.048 13.1931 12 12.6011 12C11.9851 12 11.3291 12.048 10.7611 12.048C10.2971 12.048 10.0651 11.816 10.0651 11.544C10.0651 10.936 10.8411 10.928 11.0011 9.896C11.0651 9.392 11.0971 7.96 11.0971 6.248C11.0971 5.032 11.0971 4.064 11.0651 3.664C10.9451 2.232 10.1371 2.288 10.1371 1.616C10.1371 1.312 10.2971 1.072 10.7611 1.072C11.3531 1.072 12.0011 1.12 12.6011 1.12C13.2171 1.12 13.8651 1.072 14.4091 1.072ZM15.8549 1.072C16.1909 1.072 16.9349 1.12 17.3829 1.12C17.9029 1.12 18.2149 1.136 18.4309 1.256C18.7349 1.4 18.9349 1.712 19.5029 2.384L22.4149 6.072C22.7989 6.528 23.0549 6.776 23.1029 6.776C23.1989 6.776 23.2229 6.704 23.2229 5.96C23.2229 4.672 23.1269 3.4 22.8229 2.84C22.5189 2.216 22.0469 2.08 22.0469 1.616C22.0469 1.296 22.2149 1.072 22.6629 1.072C23.0949 1.072 23.5989 1.12 23.9349 1.12C24.3429 1.12 24.8629 1.072 25.2389 1.072C25.6789 1.072 25.8389 1.304 25.8389 1.616C25.8389 2.296 25.1269 2.128 25.0149 3.528C24.9829 3.888 24.9669 4.912 24.9669 5.624C24.9829 9.816 25.1269 9.544 25.1269 11C25.1269 11.616 24.5749 12.136 23.6629 12.136C23.4469 12.136 23.1109 11.944 22.8069 11.584L18.3749 6.088C18.1749 5.864 18.0869 5.752 18.0149 5.752C17.8949 5.752 17.8789 5.936 17.8789 6.832C17.8789 8.368 18.0469 9.72 18.3269 10.288C18.6389 10.952 19.1109 11.048 19.1109 11.504C19.1109 11.824 18.9349 12.048 18.4869 12.048C17.9909 12.048 17.5429 12 17.2069 12C16.7989 12 16.2389 12.048 15.7669 12.048C15.3269 12.048 15.1589 11.816 15.1589 11.504C15.1589 10.832 16.0149 11 16.1269 9.6C16.1589 9.224 16.1909 8.144 16.1909 6.256C16.1909 4.736 16.1749 4.048 16.1509 3.672C16.0229 2.24 15.2309 2.304 15.2309 1.616C15.2309 1.296 15.4149 1.072 15.8549 1.072ZM32.361 5.288V7.744C32.361 8.176 32.257 8.44 31.921 8.44C31.569 8.44 31.425 8.128 31.305 7.872C31.049 7.336 30.881 6.992 30.153 6.992C29.849 6.992 29.721 7.2 29.721 7.888V8.92C29.721 10.216 30.137 10.376 30.977 10.376C32.521 10.376 33.089 9.8 33.673 8.648C33.849 8.32 34.041 8.08 34.305 8.08C34.561 8.08 34.745 8.28 34.745 8.792C34.745 9.224 34.521 10.328 34.433 11.392C34.393 11.96 34.233 12.048 33.601 12.048C32.889 12.048 31.409 12 30.345 12C29.297 12 27.817 12.048 26.433 12.048C25.969 12.048 25.737 11.84 25.737 11.544C25.737 10.944 26.505 10.944 26.657 9.92C26.737 9.4 26.769 7.992 26.769 6.248C26.769 5.016 26.753 4.064 26.729 3.672C26.601 2.24 25.809 2.304 25.809 1.616C25.809 1.312 25.969 1.072 26.433 1.072C27.457 1.072 28.537 1.12 30.049 1.12C31.433 1.12 32.369 1.072 33.105 1.072C33.777 1.072 34.001 1.192 34.129 2.04C34.193 2.4 34.297 2.976 34.425 3.632C34.489 3.904 34.537 4.232 34.537 4.336C34.537 4.728 34.281 4.88 34.033 4.88C33.681 4.88 33.489 4.536 33.297 4.176C32.641 2.984 32.297 2.64 30.769 2.64C29.921 2.64 29.721 2.816 29.721 3.784V4.464C29.721 5.256 29.849 5.368 30.089 5.368C31.057 5.368 31.185 4.8 31.489 4.392C31.593 4.272 31.721 4.184 31.881 4.184C32.217 4.184 32.361 4.472 32.361 5.288ZM43.8101 6.016C43.6421 6.016 43.2501 7.032 42.6341 8.704C42.2581 9.712 41.8581 10.832 41.5861 11.376C41.3701 11.776 41.0421 12.08 40.5701 12.08C40.3381 12.08 40.1221 11.864 40.0101 11.608C39.7621 11.08 38.5941 8.152 37.8661 6.44C37.7541 6.168 37.6821 6.024 37.6101 6.024C37.5461 6.024 37.5061 6.12 37.4901 6.272C37.4661 6.456 37.4261 7.688 37.4261 8.056C37.4261 9.08 37.5301 9.976 37.6821 10.328C37.9701 10.952 38.4261 10.984 38.4261 11.504C38.4261 11.816 38.2581 12.048 37.8021 12.048C37.1941 12.048 36.9221 12 36.5941 12C36.1861 12 35.7301 12.048 35.1381 12.048C34.7141 12.048 34.5381 11.824 34.5381 11.504C34.5381 10.832 35.3381 11 35.5301 9.592C35.6981 8.288 35.8261 6.264 35.8261 5C35.8261 4.552 35.8101 4.032 35.7781 3.672C35.6501 2.24 34.8661 2.304 34.8661 1.616C34.8661 1.304 35.0181 1.072 35.4821 1.072C35.8101 1.072 36.5461 1.12 36.9941 1.12C38.0421 1.12 38.3221 1.176 38.6341 1.376C38.9541 1.584 39.2821 2.08 39.4501 2.392C39.7381 2.912 40.8181 5.448 41.3461 6.696C41.3941 6.8 41.4341 6.872 41.5061 6.872C41.5461 6.872 41.6101 6.84 41.6661 6.712C41.8261 6.312 43.0021 3.352 43.4661 2.352C43.7061 1.856 43.9381 1.536 44.2101 1.368C44.5141 1.184 45.0101 1.12 45.9461 1.12C46.2341 1.12 46.7621 1.072 47.0901 1.072C47.5301 1.072 47.6901 1.304 47.6901 1.624C47.6901 2.296 46.9301 2.256 46.7781 3.664C46.7461 4.04 46.7301 4.608 46.7301 4.968C46.7301 6.456 46.8821 8.44 47.0341 9.576C47.2341 11.008 48.0421 10.832 48.0421 11.504C48.0421 11.824 47.8661 12.048 47.4261 12.048C46.8421 12.048 46.0181 12 45.6181 12C45.0021 12 44.3701 12.048 43.7781 12.048C43.3301 12.048 43.0821 11.848 43.0821 11.544C43.0821 10.944 43.8581 10.944 44.0261 9.904C44.0581 9.752 44.0581 9.488 44.0581 9.176C44.0581 8.456 44.0101 7.184 43.9141 6.248C43.8901 6.072 43.8261 6.016 43.8101 6.016ZM48.5481 9.584L50.7161 3.904C50.9481 3.28 51.0921 2.624 51.1801 2.16C51.3161 1.488 52.7801 0.856 53.3561 0.856C53.8361 0.856 54.0041 1.192 54.1801 1.64L57.2921 9.64C57.4041 9.912 57.5881 10.328 58.0121 10.744C58.1801 10.912 58.4681 11.152 58.4681 11.432C58.4681 11.912 58.1161 12.048 57.4041 12.048C56.9321 12.048 56.4841 12 55.6441 12C54.8121 12 54.3001 12.048 53.7721 12.048C53.2521 12.048 53.0041 11.832 53.0041 11.48C53.0041 10.984 53.9961 10.768 53.9961 9.952C53.9961 9.824 53.8681 9.48 53.7561 9.28C53.7001 9.184 53.5641 9.112 53.4201 9.112H51.0041C50.7961 9.112 50.6361 9.192 50.5401 9.296C50.4201 9.456 50.2201 9.84 50.2201 10.128C50.2201 10.88 51.0761 11.032 51.0761 11.528C51.0761 11.816 50.9001 12.048 50.3321 12.048C49.9401 12.048 49.4041 12 48.9881 12C48.5801 12 48.3161 12.048 47.9161 12.048C47.5401 12.048 47.3321 11.856 47.3321 11.536C47.3321 10.984 47.9881 11.032 48.5481 9.584ZM51.2921 7.472H52.9081C53.0841 7.472 53.1321 7.408 53.1321 7.32C53.1321 7.072 52.6441 5.616 52.3001 4.968C52.2521 4.88 52.1721 4.784 52.1241 4.784C52.0601 4.784 52.0041 4.88 51.9561 4.968C51.6361 5.576 51.0921 7.104 51.0921 7.32C51.0921 7.408 51.1321 7.472 51.2921 7.472ZM62.1812 2.472C61.5572 2.472 60.9572 2.8 60.9572 3.44C60.9572 4.192 62.2212 4.544 63.6292 5.072C65.2212 5.672 66.9412 6.56 66.9412 8.656C66.9412 11.008 65.1892 12.272 62.7012 12.272C61.5732 12.272 60.4372 11.944 59.8292 11.944C59.5332 11.944 59.2372 12.072 58.9812 12.072C58.3092 12.072 58.3972 11.456 58.2052 10.184C58.0692 9.248 58.0052 9.016 58.0052 8.712C58.0052 8.28 58.1892 8.064 58.4212 8.064C58.7732 8.064 59.1252 8.576 59.5172 9.016C60.2212 9.792 61.3172 10.456 62.5572 10.456C63.2452 10.456 63.7492 10.096 63.7492 9.512C63.7492 8.632 62.5652 8.328 61.2932 7.856C59.8052 7.312 58.1652 6.512 58.1652 4.368C58.1652 2.264 59.5812 0.848 61.9412 0.848C62.9972 0.848 63.6772 1.176 64.1732 1.176C64.5492 1.176 64.7812 0.999999 65.1412 0.999999C65.8612 0.999999 65.8612 1.688 66.0452 2.64C66.2852 3.832 66.4052 4.088 66.4052 4.336C66.4052 4.712 66.1812 4.896 65.9252 4.896C65.4372 4.896 65.2532 4.344 64.7892 3.832C63.8452 2.776 62.9412 2.472 62.1812 2.472Z" fill="#430E0E"/>
</svg>
