<svg width="53" height="13" viewBox="0 0 53 13" fill="none" xmlns="http://www.w3.org/2000/svg">
<path d="M2.12623 9.584L4.29423 3.904C4.52623 3.28 4.67023 2.624 4.75823 2.16C4.89423 1.488 6.35823 0.856 6.93423 0.856C7.41423 0.856 7.58223 1.192 7.75823 1.64L10.8702 9.64C10.9822 9.912 11.1662 10.328 11.5902 10.744C11.7582 10.912 12.0462 11.152 12.0462 11.432C12.0462 11.912 11.6942 12.048 10.9822 12.048C10.5102 12.048 10.0622 12 9.22223 12C8.39023 12 7.87823 12.048 7.35023 12.048C6.83023 12.048 6.58223 11.832 6.58223 11.48C6.58223 10.984 7.57423 10.768 7.57423 9.952C7.57423 9.824 7.44623 9.48 7.33423 9.28C7.27823 9.184 7.14223 9.112 6.99823 9.112H4.58223C4.37423 9.112 4.21423 9.192 4.11823 9.296C3.99823 9.456 3.79823 9.84 3.79823 10.128C3.79823 10.88 4.65423 11.032 4.65423 11.528C4.65423 11.816 4.47823 12.048 3.91023 12.048C3.51823 12.048 2.98223 12 2.56623 12C2.15823 12 1.89423 12.048 1.49423 12.048C1.11823 12.048 0.910234 11.856 0.910234 11.536C0.910234 10.984 1.56623 11.032 2.12623 9.584ZM4.87023 7.472H6.48623C6.66223 7.472 6.71023 7.408 6.71023 7.32C6.71023 7.072 6.22223 5.616 5.87823 4.968C5.83023 4.88 5.75023 4.784 5.70223 4.784C5.63823 4.784 5.58223 4.88 5.53423 4.968C5.21423 5.576 4.67023 7.104 4.67023 7.32C4.67023 7.408 4.71023 7.472 4.87023 7.472ZM15.4554 8.048V9.064C15.4554 10.12 15.8474 10.456 16.3674 10.696C16.7754 10.896 17.1274 11.064 17.1274 11.424C17.1274 11.904 16.7114 12.048 16.1354 12.048C15.5754 12.048 14.5994 12 14.0074 12C13.3994 12 12.6154 12.048 12.1674 12.048C11.7034 12.048 11.4714 11.84 11.4714 11.544C11.4714 10.944 12.2394 10.944 12.3914 9.92C12.4714 9.4 12.5034 7.992 12.5034 6.248C12.5034 5.016 12.4874 4.064 12.4634 3.672C12.3354 2.24 11.5434 2.304 11.5434 1.616C11.5434 1.312 11.7034 1.072 12.1674 1.072C13.1914 1.072 14.2714 1.12 15.7834 1.12C17.1674 1.12 18.1034 1.072 18.8394 1.072C19.5114 1.072 19.7354 1.192 19.8634 2.04C19.9274 2.4 20.0314 2.976 20.1594 3.632C20.2234 3.904 20.2714 4.232 20.2714 4.336C20.2714 4.728 20.0154 4.88 19.7674 4.88C19.4154 4.88 19.2234 4.536 19.0314 4.176C18.3754 2.984 18.0314 2.64 16.5034 2.64C15.6554 2.64 15.4554 2.816 15.4554 3.784V4.624C15.4554 5.416 15.5834 5.528 15.8234 5.528C16.8074 5.528 16.9114 4.96 17.2234 4.552C17.3274 4.432 17.4474 4.344 17.6154 4.344C17.9514 4.344 18.0954 4.632 18.0954 5.448V7.904C18.0954 8.336 17.9914 8.6 17.6554 8.6C17.3034 8.6 17.1594 8.288 17.0394 8.032C16.7834 7.496 16.6154 7.152 15.8874 7.152C15.5834 7.152 15.4554 7.36 15.4554 8.048ZM23.8071 8.528V9.184C23.8071 9.928 24.0391 10.312 24.2951 10.656C24.5431 11 24.8871 11.184 24.8871 11.544C24.8871 11.88 24.5991 12.048 24.2071 12.048C23.6471 12.048 22.9431 12 22.3511 12C21.7431 12 20.9591 12.048 20.5111 12.048C20.0471 12.048 19.8151 11.84 19.8151 11.544C19.8151 10.944 20.5831 10.944 20.7351 9.92C20.8151 9.4 20.8471 7.992 20.8471 6.248C20.8471 5.016 20.8311 4.064 20.8071 3.672C20.6791 2.24 19.8871 2.304 19.8871 1.616C19.8871 1.312 20.0471 1.072 20.5111 1.072C21.5351 1.072 21.7351 1.12 22.7991 1.12C23.6951 1.12 24.7271 1.056 25.6791 1.056C27.8311 1.056 29.3271 1.912 29.3271 3.96C29.3271 4.952 28.8151 6 27.0871 6.632C27.0471 6.656 26.9911 6.688 26.9911 6.744C26.9911 6.784 27.0151 6.84 27.0951 6.88C28.1671 7.408 28.8631 8.344 29.5031 9.576C29.8231 10.192 30.1031 10.632 30.3911 10.88C30.6951 11.168 30.8551 11.208 30.8551 11.536C30.8551 11.936 30.5831 12.048 30.3031 12.048C29.9511 12.048 29.0231 12 28.6311 12C27.9111 12 27.1831 12.048 26.9191 12.048C26.4711 12.048 26.1831 11.8 26.1831 11.496C26.1831 11.192 26.3671 11.056 26.3671 10.672C26.3671 9.848 25.6311 8.4 24.9831 7.888C24.7511 7.72 24.4231 7.656 24.2951 7.656C23.9671 7.656 23.8071 7.984 23.8071 8.528ZM25.9831 4.392C25.9831 3.392 25.3191 2.704 24.4471 2.704C23.9031 2.704 23.8231 2.816 23.8231 3.92V4.824C23.8231 5.544 23.9031 5.944 24.6231 5.944C25.4151 5.944 25.9831 5.4 25.9831 4.392ZM34.6279 1.072C35.0839 1.072 35.2519 1.304 35.2519 1.616C35.2519 2.296 34.4759 2.224 34.3399 3.664C34.2919 4.056 34.2919 4.856 34.2919 6.248C34.2919 8.096 34.3319 9.376 34.4119 9.896C34.5639 10.928 35.3239 10.936 35.3239 11.544C35.3239 11.816 35.0839 12.048 34.6279 12.048C34.0679 12.048 33.4119 12 32.8199 12C32.2039 12 31.5479 12.048 30.9799 12.048C30.5159 12.048 30.2839 11.816 30.2839 11.544C30.2839 10.936 31.0599 10.928 31.2199 9.896C31.2839 9.392 31.3159 7.96 31.3159 6.248C31.3159 5.032 31.3159 4.064 31.2839 3.664C31.1639 2.232 30.3559 2.288 30.3559 1.616C30.3559 1.312 30.5159 1.072 30.9799 1.072C31.5719 1.072 32.2199 1.12 32.8199 1.12C33.4359 1.12 34.0839 1.072 34.6279 1.072ZM39.3616 8.048V9.064C39.3616 10.12 39.7536 10.456 40.2736 10.696C40.6816 10.896 41.0336 11.064 41.0336 11.424C41.0336 11.904 40.6176 12.048 40.0416 12.048C39.4816 12.048 38.5056 12 37.9136 12C37.3056 12 36.5216 12.048 36.0736 12.048C35.6096 12.048 35.3776 11.84 35.3776 11.544C35.3776 10.944 36.1456 10.944 36.2976 9.92C36.3776 9.4 36.4096 7.992 36.4096 6.248C36.4096 5.016 36.3936 4.064 36.3696 3.672C36.2416 2.24 35.4496 2.304 35.4496 1.616C35.4496 1.312 35.6096 1.072 36.0736 1.072C37.0976 1.072 38.1776 1.12 39.6896 1.12C41.0736 1.12 42.0096 1.072 42.7456 1.072C43.4176 1.072 43.6416 1.192 43.7696 2.04C43.8336 2.4 43.9376 2.976 44.0656 3.632C44.1296 3.904 44.1776 4.232 44.1776 4.336C44.1776 4.728 43.9216 4.88 43.6736 4.88C43.3216 4.88 43.1296 4.536 42.9376 4.176C42.2816 2.984 41.9376 2.64 40.4096 2.64C39.5616 2.64 39.3616 2.816 39.3616 3.784V4.624C39.3616 5.416 39.4896 5.528 39.7296 5.528C40.7136 5.528 40.8176 4.96 41.1296 4.552C41.2336 4.432 41.3536 4.344 41.5216 4.344C41.8576 4.344 42.0016 4.632 42.0016 5.448V7.904C42.0016 8.336 41.8976 8.6 41.5616 8.6C41.2096 8.6 41.0656 8.288 40.9456 8.032C40.6896 7.496 40.5216 7.152 39.7936 7.152C39.4896 7.152 39.3616 7.36 39.3616 8.048ZM47.7054 8.048V9.064C47.7054 10.12 48.0974 10.456 48.6174 10.696C49.0254 10.896 49.3774 11.064 49.3774 11.424C49.3774 11.904 48.9614 12.048 48.3854 12.048C47.8254 12.048 46.8494 12 46.2574 12C45.6494 12 44.8654 12.048 44.4174 12.048C43.9534 12.048 43.7214 11.84 43.7214 11.544C43.7214 10.944 44.4894 10.944 44.6414 9.92C44.7214 9.4 44.7534 7.992 44.7534 6.248C44.7534 5.016 44.7374 4.064 44.7134 3.672C44.5854 2.24 43.7934 2.304 43.7934 1.616C43.7934 1.312 43.9534 1.072 44.4174 1.072C45.4414 1.072 46.5214 1.12 48.0334 1.12C49.4174 1.12 50.3534 1.072 51.0894 1.072C51.7614 1.072 51.9854 1.192 52.1134 2.04C52.1774 2.4 52.2814 2.976 52.4094 3.632C52.4734 3.904 52.5214 4.232 52.5214 4.336C52.5214 4.728 52.2654 4.88 52.0174 4.88C51.6654 4.88 51.4734 4.536 51.2814 4.176C50.6254 2.984 50.2814 2.64 48.7534 2.64C47.9054 2.64 47.7054 2.816 47.7054 3.784V4.624C47.7054 5.416 47.8334 5.528 48.0734 5.528C49.0574 5.528 49.1614 4.96 49.4734 4.552C49.5774 4.432 49.6974 4.344 49.8654 4.344C50.2014 4.344 50.3454 4.632 50.3454 5.448V7.904C50.3454 8.336 50.2414 8.6 49.9054 8.6C49.5534 8.6 49.4094 8.288 49.2894 8.032C49.0334 7.496 48.8654 7.152 48.1374 7.152C47.8334 7.152 47.7054 7.36 47.7054 8.048Z" fill="#17171C"/>
</svg>
